<svg width="900" height="147" viewBox="0 0 900 147" fill="none" xmlns="http://www.w3.org/2000/svg">
<path d="M0 78L30 87.2C60 96.3 120 114.7 180 116.5C240 118.3 300 103.7 360 102.3C420 101 480 113 540 117.3C600 121.7 660 118.3 720 120C780 121.7 840 128.3 870 131.7L900 135V0H870C840 0 780 0 720 0C660 0 600 0 540 0C480 0 420 0 360 0C300 0 240 0 180 0C120 0 60 0 30 0H0V78Z" fill="#6600FF"/>
<path d="M0 57L30 67.5C60 78 120 99 180 99.5C240 100 300 80 360 73.5C420 67 480 74 540 75.3C600 76.7 660 72.3 720 79.8C780 87.3 840 106.7 870 116.3L900 126V0H870C840 0 780 0 720 0C660 0 600 0 540 0C480 0 420 0 360 0C300 0 240 0 180 0C120 0 60 0 30 0H0V57Z" fill="#6439FF"/>
<path d="M0 80L30 77C60 74 120 68 180 61.8C240 55.7 300 49.3 360 51C420 52.7 480 62.3 540 67.2C600 72 660 72 720 73.8C780 75.7 840 79.3 870 81.2L900 83V0H870C840 0 780 0 720 0C660 0 600 0 540 0C480 0 420 0 360 0C300 0 240 0 180 0C120 0 60 0 30 0H0V80Z" fill="#6553FF"/>
<path d="M0 75L30 73C60 71 120 67 180 63.8C240 60.7 300 58.3 360 60C420 61.7 480 67.3 540 66.2C600 65 660 57 720 52.2C780 47.3 840 45.7 870 44.8L900 44V0H870C840 0 780 0 720 0C660 0 600 0 540 0C480 0 420 0 360 0C300 0 240 0 180 0C120 0 60 0 30 0H0V75Z" fill="#6B68FE"/>
<path d="M0 40L30 42.2C60 44.3 120 48.7 180 45.8C240 43 300 33 360 27.8C420 22.7 480 22.3 540 21.3C600 20.3 660 18.7 720 21.2C780 23.7 840 30.3 870 33.7L900 37V0H870C840 0 780 0 720 0C660 0 600 0 540 0C480 0 420 0 360 0C300 0 240 0 180 0C120 0 60 0 30 0H0V40Z" fill="#757BFC"/>
<path d="M0 12L30 12.5C60 13 120 14 180 15C240 16 300 17 360 18.2C420 19.3 480 20.7 540 20C600 19.3 660 16.7 720 17C780 17.3 840 20.7 870 22.3L900 24V0H870C840 0 780 0 720 0C660 0 600 0 540 0C480 0 420 0 360 0C300 0 240 0 180 0C120 0 60 0 30 0H0V12Z" fill="#818CF8"/>
</svg>
